<mxfile host="app.diagrams.net" modified="2022-06-09T12:00:50.792Z" agent="5.0 (Windows NT 10.0; Win64; x64) AppleWebKit/537.36 (KHTML, like Gecko) Chrome/101.0.0.0 Safari/537.36" etag="QXrwjpx3By4LlMuBr27o" version="19.0.2" type="github">
  <diagram id="tC0iIV0uiCvsRvUVVy47" name="第 1 页">
    <mxGraphModel dx="1865" dy="571" grid="1" gridSize="10" guides="1" tooltips="1" connect="1" arrows="1" fold="1" page="1" pageScale="1" pageWidth="827" pageHeight="1169" math="0" shadow="0">
      <root>
        <mxCell id="0" />
        <mxCell id="1" parent="0" />
        <mxCell id="Mp_Zq2vFrZHo0Tf6r4uq-55" value="" style="rounded=1;whiteSpace=wrap;html=1;fontSize=14;strokeWidth=2;fillColor=none;dashed=1;" vertex="1" parent="1">
          <mxGeometry x="-90" y="485" width="320" height="310" as="geometry" />
        </mxCell>
        <mxCell id="Mp_Zq2vFrZHo0Tf6r4uq-57" value="" style="rounded=1;whiteSpace=wrap;html=1;fontSize=14;strokeWidth=2;fillColor=none;dashed=1;" vertex="1" parent="1">
          <mxGeometry x="640" y="485" width="320" height="310" as="geometry" />
        </mxCell>
        <mxCell id="Mp_Zq2vFrZHo0Tf6r4uq-2" value="" style="whiteSpace=wrap;html=1;aspect=fixed;strokeWidth=2;fillColor=#d5e8d4;strokeColor=#82b366;gradientColor=#97d077;" vertex="1" parent="1">
          <mxGeometry x="240" y="380" width="390" height="390" as="geometry" />
        </mxCell>
        <mxCell id="Mp_Zq2vFrZHo0Tf6r4uq-3" value="注册中心" style="text;html=1;strokeColor=none;fillColor=none;align=center;verticalAlign=middle;whiteSpace=wrap;rounded=0;strokeWidth=2;fontSize=14;" vertex="1" parent="1">
          <mxGeometry x="520" y="380" width="60" height="30" as="geometry" />
        </mxCell>
        <mxCell id="Mp_Zq2vFrZHo0Tf6r4uq-10" style="edgeStyle=orthogonalEdgeStyle;rounded=0;orthogonalLoop=1;jettySize=auto;html=1;entryX=0.5;entryY=0;entryDx=0;entryDy=0;fontSize=14;strokeWidth=2;startArrow=none;" edge="1" parent="1" source="Mp_Zq2vFrZHo0Tf6r4uq-11" target="Mp_Zq2vFrZHo0Tf6r4uq-9">
          <mxGeometry relative="1" as="geometry" />
        </mxCell>
        <mxCell id="Mp_Zq2vFrZHo0Tf6r4uq-4" value="注册/服务列表&lt;br&gt;服务实例的地址信息" style="rounded=0;whiteSpace=wrap;html=1;fontSize=14;strokeWidth=2;fillColor=#d5e8d4;strokeColor=#82b366;" vertex="1" parent="1">
          <mxGeometry x="349.5" y="440" width="151" height="60" as="geometry" />
        </mxCell>
        <mxCell id="Mp_Zq2vFrZHo0Tf6r4uq-24" style="edgeStyle=orthogonalEdgeStyle;rounded=0;orthogonalLoop=1;jettySize=auto;html=1;entryX=1;entryY=0.5;entryDx=0;entryDy=0;fontSize=14;strokeWidth=2;exitX=0;exitY=0.5;exitDx=0;exitDy=0;" edge="1" parent="1" source="Mp_Zq2vFrZHo0Tf6r4uq-5" target="Mp_Zq2vFrZHo0Tf6r4uq-4">
          <mxGeometry relative="1" as="geometry">
            <Array as="points">
              <mxPoint x="650" y="585" />
              <mxPoint x="650" y="470" />
            </Array>
          </mxGeometry>
        </mxCell>
        <mxCell id="Mp_Zq2vFrZHo0Tf6r4uq-5" value="服务提供者" style="rounded=1;whiteSpace=wrap;html=1;fontSize=14;strokeWidth=2;fillColor=#f8cecc;strokeColor=#b85450;" vertex="1" parent="1">
          <mxGeometry x="750" y="555" width="120" height="60" as="geometry" />
        </mxCell>
        <mxCell id="Mp_Zq2vFrZHo0Tf6r4uq-25" style="edgeStyle=orthogonalEdgeStyle;rounded=0;orthogonalLoop=1;jettySize=auto;html=1;entryX=1;entryY=0.5;entryDx=0;entryDy=0;fontSize=14;strokeWidth=2;startArrow=none;" edge="1" parent="1" target="Mp_Zq2vFrZHo0Tf6r4uq-4">
          <mxGeometry relative="1" as="geometry">
            <mxPoint x="520" y="470" as="sourcePoint" />
            <Array as="points" />
          </mxGeometry>
        </mxCell>
        <mxCell id="Mp_Zq2vFrZHo0Tf6r4uq-6" value="服务提供者" style="rounded=1;whiteSpace=wrap;html=1;fontSize=14;strokeWidth=2;fillColor=#f8cecc;strokeColor=#b85450;" vertex="1" parent="1">
          <mxGeometry x="750" y="680" width="120" height="60" as="geometry" />
        </mxCell>
        <mxCell id="Mp_Zq2vFrZHo0Tf6r4uq-7" value="服务消费者" style="rounded=1;whiteSpace=wrap;html=1;fontSize=14;strokeWidth=2;fillColor=#1ba1e2;fontColor=#ffffff;strokeColor=#006EAF;" vertex="1" parent="1">
          <mxGeometry x="-40" y="680" width="120" height="60" as="geometry" />
        </mxCell>
        <mxCell id="Mp_Zq2vFrZHo0Tf6r4uq-8" value="服务消费者" style="rounded=1;whiteSpace=wrap;html=1;fontSize=14;strokeWidth=2;fillColor=#1ba1e2;fontColor=#ffffff;strokeColor=#006EAF;" vertex="1" parent="1">
          <mxGeometry x="-40" y="560" width="120" height="60" as="geometry" />
        </mxCell>
        <mxCell id="Mp_Zq2vFrZHo0Tf6r4uq-19" style="edgeStyle=orthogonalEdgeStyle;rounded=0;orthogonalLoop=1;jettySize=auto;html=1;entryX=0.5;entryY=0;entryDx=0;entryDy=0;fontSize=14;strokeWidth=2;startArrow=none;" edge="1" parent="1" source="Mp_Zq2vFrZHo0Tf6r4uq-20" target="Mp_Zq2vFrZHo0Tf6r4uq-16">
          <mxGeometry relative="1" as="geometry" />
        </mxCell>
        <mxCell id="Mp_Zq2vFrZHo0Tf6r4uq-9" value="服务实例信息" style="rounded=0;whiteSpace=wrap;html=1;fontSize=14;strokeWidth=2;fillColor=#fff2cc;strokeColor=#d6b656;" vertex="1" parent="1">
          <mxGeometry x="365" y="560" width="120" height="60" as="geometry" />
        </mxCell>
        <mxCell id="Mp_Zq2vFrZHo0Tf6r4uq-11" value="立刻传递" style="text;html=1;strokeColor=none;fillColor=none;align=center;verticalAlign=middle;whiteSpace=wrap;rounded=0;fontSize=14;" vertex="1" parent="1">
          <mxGeometry x="395" y="515" width="60" height="30" as="geometry" />
        </mxCell>
        <mxCell id="Mp_Zq2vFrZHo0Tf6r4uq-12" value="" style="edgeStyle=orthogonalEdgeStyle;rounded=0;orthogonalLoop=1;jettySize=auto;html=1;entryX=0.5;entryY=0;entryDx=0;entryDy=0;fontSize=14;strokeWidth=2;endArrow=none;" edge="1" parent="1" source="Mp_Zq2vFrZHo0Tf6r4uq-4" target="Mp_Zq2vFrZHo0Tf6r4uq-11">
          <mxGeometry relative="1" as="geometry">
            <mxPoint x="425" y="500" as="sourcePoint" />
            <mxPoint x="425" y="560" as="targetPoint" />
          </mxGeometry>
        </mxCell>
        <mxCell id="Mp_Zq2vFrZHo0Tf6r4uq-14" value="WriteRead" style="text;html=1;strokeColor=none;fillColor=none;align=center;verticalAlign=middle;whiteSpace=wrap;rounded=0;fontSize=14;" vertex="1" parent="1">
          <mxGeometry x="320" y="525" width="60" height="30" as="geometry" />
        </mxCell>
        <mxCell id="Mp_Zq2vFrZHo0Tf6r4uq-42" style="edgeStyle=orthogonalEdgeStyle;rounded=0;orthogonalLoop=1;jettySize=auto;html=1;entryX=1;entryY=0.5;entryDx=0;entryDy=0;fontSize=14;strokeWidth=2;" edge="1" parent="1" source="Mp_Zq2vFrZHo0Tf6r4uq-16" target="Mp_Zq2vFrZHo0Tf6r4uq-8">
          <mxGeometry relative="1" as="geometry" />
        </mxCell>
        <mxCell id="Mp_Zq2vFrZHo0Tf6r4uq-43" style="edgeStyle=orthogonalEdgeStyle;rounded=0;orthogonalLoop=1;jettySize=auto;html=1;entryX=1;entryY=0.5;entryDx=0;entryDy=0;fontSize=14;strokeWidth=2;" edge="1" parent="1" source="Mp_Zq2vFrZHo0Tf6r4uq-16" target="Mp_Zq2vFrZHo0Tf6r4uq-7">
          <mxGeometry relative="1" as="geometry" />
        </mxCell>
        <mxCell id="Mp_Zq2vFrZHo0Tf6r4uq-16" value="服务实例信息" style="rounded=0;whiteSpace=wrap;html=1;fontSize=14;strokeWidth=2;fillColor=#ffe6cc;strokeColor=#d79b00;" vertex="1" parent="1">
          <mxGeometry x="365" y="680" width="120" height="60" as="geometry" />
        </mxCell>
        <mxCell id="Mp_Zq2vFrZHo0Tf6r4uq-17" value="ReadONLY" style="text;html=1;strokeColor=none;fillColor=none;align=center;verticalAlign=middle;whiteSpace=wrap;rounded=0;fontSize=14;" vertex="1" parent="1">
          <mxGeometry x="324" y="650" width="60" height="30" as="geometry" />
        </mxCell>
        <mxCell id="Mp_Zq2vFrZHo0Tf6r4uq-20" value="定时线程，定时传递" style="text;html=1;strokeColor=none;fillColor=none;align=center;verticalAlign=middle;whiteSpace=wrap;rounded=0;fontSize=14;" vertex="1" parent="1">
          <mxGeometry x="360" y="625" width="130" height="30" as="geometry" />
        </mxCell>
        <mxCell id="Mp_Zq2vFrZHo0Tf6r4uq-21" value="" style="edgeStyle=orthogonalEdgeStyle;rounded=0;orthogonalLoop=1;jettySize=auto;html=1;entryX=0.5;entryY=0;entryDx=0;entryDy=0;fontSize=14;strokeWidth=2;endArrow=none;" edge="1" parent="1" source="Mp_Zq2vFrZHo0Tf6r4uq-9" target="Mp_Zq2vFrZHo0Tf6r4uq-20">
          <mxGeometry relative="1" as="geometry">
            <mxPoint x="425" y="620" as="sourcePoint" />
            <mxPoint x="425" y="680" as="targetPoint" />
            <Array as="points">
              <mxPoint x="425" y="630" />
              <mxPoint x="425" y="630" />
            </Array>
          </mxGeometry>
        </mxCell>
        <mxCell id="Mp_Zq2vFrZHo0Tf6r4uq-27" value="" style="edgeStyle=orthogonalEdgeStyle;rounded=0;orthogonalLoop=1;jettySize=auto;html=1;entryX=1;entryY=0.5;entryDx=0;entryDy=0;fontSize=14;strokeWidth=2;endArrow=none;startArrow=none;" edge="1" parent="1" source="Mp_Zq2vFrZHo0Tf6r4uq-32">
          <mxGeometry relative="1" as="geometry">
            <mxPoint x="720" y="710" as="sourcePoint" />
            <mxPoint x="580" y="470" as="targetPoint" />
            <Array as="points">
              <mxPoint x="590" y="710" />
              <mxPoint x="590" y="470" />
            </Array>
          </mxGeometry>
        </mxCell>
        <mxCell id="Mp_Zq2vFrZHo0Tf6r4uq-28" value="注册" style="text;html=1;strokeColor=none;fillColor=none;align=center;verticalAlign=middle;whiteSpace=wrap;rounded=0;fontSize=14;" vertex="1" parent="1">
          <mxGeometry x="530" y="445" width="60" height="30" as="geometry" />
        </mxCell>
        <mxCell id="Mp_Zq2vFrZHo0Tf6r4uq-32" value="心跳" style="text;html=1;strokeColor=none;fillColor=none;align=center;verticalAlign=middle;whiteSpace=wrap;rounded=0;fontSize=14;" vertex="1" parent="1">
          <mxGeometry x="630" y="695" width="60" height="30" as="geometry" />
        </mxCell>
        <mxCell id="Mp_Zq2vFrZHo0Tf6r4uq-33" value="" style="edgeStyle=orthogonalEdgeStyle;rounded=0;orthogonalLoop=1;jettySize=auto;html=1;entryX=1;entryY=0.5;entryDx=0;entryDy=0;fontSize=14;strokeWidth=2;endArrow=none;" edge="1" parent="1" source="Mp_Zq2vFrZHo0Tf6r4uq-6" target="Mp_Zq2vFrZHo0Tf6r4uq-32">
          <mxGeometry relative="1" as="geometry">
            <mxPoint x="720" y="710" as="sourcePoint" />
            <mxPoint x="580" y="470" as="targetPoint" />
            <Array as="points" />
          </mxGeometry>
        </mxCell>
        <mxCell id="Mp_Zq2vFrZHo0Tf6r4uq-34" value="心跳" style="text;html=1;strokeColor=none;fillColor=none;align=center;verticalAlign=middle;whiteSpace=wrap;rounded=0;fontSize=14;" vertex="1" parent="1">
          <mxGeometry x="650" y="555" width="60" height="30" as="geometry" />
        </mxCell>
        <mxCell id="Mp_Zq2vFrZHo0Tf6r4uq-39" style="edgeStyle=orthogonalEdgeStyle;rounded=0;orthogonalLoop=1;jettySize=auto;html=1;entryX=0.5;entryY=0;entryDx=0;entryDy=0;fontSize=14;strokeWidth=2;startArrow=none;" edge="1" parent="1" source="Mp_Zq2vFrZHo0Tf6r4uq-40" target="Mp_Zq2vFrZHo0Tf6r4uq-4">
          <mxGeometry relative="1" as="geometry">
            <Array as="points">
              <mxPoint x="425" y="418" />
            </Array>
          </mxGeometry>
        </mxCell>
        <mxCell id="Mp_Zq2vFrZHo0Tf6r4uq-38" value="定时线程" style="ellipse;whiteSpace=wrap;html=1;fontSize=14;strokeWidth=2;" vertex="1" parent="1">
          <mxGeometry x="250" y="395" width="70" height="45" as="geometry" />
        </mxCell>
        <mxCell id="Mp_Zq2vFrZHo0Tf6r4uq-40" value="间隔时间" style="text;html=1;strokeColor=none;fillColor=none;align=center;verticalAlign=middle;whiteSpace=wrap;rounded=0;fontSize=14;" vertex="1" parent="1">
          <mxGeometry x="349.5" y="402.5" width="60" height="30" as="geometry" />
        </mxCell>
        <mxCell id="Mp_Zq2vFrZHo0Tf6r4uq-41" value="" style="edgeStyle=orthogonalEdgeStyle;rounded=0;orthogonalLoop=1;jettySize=auto;html=1;fontSize=14;strokeWidth=2;endArrow=none;" edge="1" parent="1" source="Mp_Zq2vFrZHo0Tf6r4uq-38">
          <mxGeometry relative="1" as="geometry">
            <mxPoint x="320" y="417.5" as="sourcePoint" />
            <mxPoint x="350" y="418" as="targetPoint" />
            <Array as="points">
              <mxPoint x="340" y="418" />
              <mxPoint x="340" y="418" />
            </Array>
          </mxGeometry>
        </mxCell>
        <mxCell id="Mp_Zq2vFrZHo0Tf6r4uq-51" value="同步" style="text;html=1;strokeColor=none;fillColor=none;align=center;verticalAlign=middle;whiteSpace=wrap;rounded=0;fontSize=14;" vertex="1" parent="1">
          <mxGeometry x="280" y="710" width="60" height="30" as="geometry" />
        </mxCell>
        <mxCell id="Mp_Zq2vFrZHo0Tf6r4uq-52" value="每隔30s去拉取服务实例信息" style="shape=note;whiteSpace=wrap;html=1;backgroundOutline=1;darkOpacity=0.05;fontSize=14;strokeWidth=2;" vertex="1" parent="1">
          <mxGeometry x="110" y="600" width="80" height="100" as="geometry" />
        </mxCell>
        <mxCell id="Mp_Zq2vFrZHo0Tf6r4uq-53" value="ribbon负载均衡" style="shape=process;whiteSpace=wrap;html=1;backgroundOutline=1;fontSize=14;strokeWidth=2;fillColor=#60a917;fontColor=#ffffff;strokeColor=#2D7600;" vertex="1" parent="1">
          <mxGeometry x="-46" y="619" width="130" height="60" as="geometry" />
        </mxCell>
        <mxCell id="Mp_Zq2vFrZHo0Tf6r4uq-54" value="eureko-servcie" style="text;html=1;strokeColor=#82b366;fillColor=#d5e8d4;align=center;verticalAlign=middle;whiteSpace=wrap;rounded=0;fontSize=14;" vertex="1" parent="1">
          <mxGeometry x="380" y="350" width="100" height="30" as="geometry" />
        </mxCell>
        <mxCell id="Mp_Zq2vFrZHo0Tf6r4uq-56" value="服务发现和负载均衡" style="text;html=1;strokeColor=#b46504;fillColor=#fad7ac;align=center;verticalAlign=middle;whiteSpace=wrap;rounded=0;dashed=1;fontSize=14;" vertex="1" parent="1">
          <mxGeometry x="30" y="445" width="90" height="30" as="geometry" />
        </mxCell>
        <mxCell id="Mp_Zq2vFrZHo0Tf6r4uq-58" value="服务注册" style="text;html=1;strokeColor=#0e8088;fillColor=#b0e3e6;align=center;verticalAlign=middle;whiteSpace=wrap;rounded=0;dashed=1;fontSize=14;" vertex="1" parent="1">
          <mxGeometry x="765" y="445" width="90" height="30" as="geometry" />
        </mxCell>
      </root>
    </mxGraphModel>
  </diagram>
</mxfile>
